<svg viewBox="0 0 24 24" xmlns="http://www.w3.org/2000/svg" role="img" aria-label="Módulo">
  <path d="M12 5.5 C10 4 6.5 3.5 3.5 4 V18.5 C6.5 18 10 18.5 12 20 C14 18.5 17.5 18 20.5 18.5 V4 C17.5 3.5 14 4 12 5.5 Z" fill="#42a5f5"/>
  <path d="M12 5.5 V20" stroke="#1565c0" stroke-width="1.3"/>
  <path d="M5.5 7 C7.5 6.7 9.5 7 11 7.8" fill="none" stroke="#e3f2fd" stroke-width="1.1" stroke-linecap="round"/>
  <path d="M5.5 10.5 C7.5 10.2 9.5 10.5 11 11.3" fill="none" stroke="#e3f2fd" stroke-width="1.1" stroke-linecap="round"/>
  <path d="M13 7.8 C14.5 7 16.5 6.7 18.5 7" fill="none" stroke="#e3f2fd" stroke-width="1.1" stroke-linecap="round"/>
  <path d="M13 11.3 C14.5 10.5 16.5 10.2 18.5 10.5" fill="none" stroke="#e3f2fd" stroke-width="1.1" stroke-linecap="round"/>
</svg>
