<svg viewBox="0 0 24 24" xmlns="http://www.w3.org/2000/svg" role="img" aria-label="Configurações">
  <path d="M12 8.3 a3.7 3.7 0 1 0 0 7.4 a3.7 3.7 0 0 0 0-7.4Z" fill="none" stroke="#607d8b" stroke-width="2.1"/>
  <path d="M12 2.5 l1 2.8 a7.6 7.6 0 0 1 2 .8 l2.8-1.2 1.8 1.8-1.2 2.8 a7.6 7.6 0 0 1 .8 2 l2.8 1 v2.6 l-2.8 1 a7.6 7.6 0 0 1-.8 2 l1.2 2.8-1.8 1.8-2.8-1.2 a7.6 7.6 0 0 1-2 .8 l-1 2.8 h-2.6 l-1-2.8 a7.6 7.6 0 0 1-2-.8 l-2.8 1.2-1.8-1.8 1.2-2.8 a7.6 7.6 0 0 1-.8-2 l-2.8-1 v-2.6 l2.8-1 a7.6 7.6 0 0 1 .8-2 L3.4 6.7 5.2 4.9 8 6.1 a7.6 7.6 0 0 1 2-.8 l1-2.8Z" fill="none" stroke="#607d8b" stroke-width="1.7" stroke-linejoin="round"/>
</svg>
