<svg viewBox="0 0 128 128" xmlns="http://www.w3.org/2000/svg" role="img" aria-label="Simulados">
  <defs>
    <linearGradient id="simulados-bg" x1="0" y1="0" x2="1" y2="1">
      <stop offset="0" stop-color="#64b5f6"/>
      <stop offset="1" stop-color="#1565c0"/>
    </linearGradient>
  </defs>
  <rect x="4" y="4" width="120" height="120" rx="30" fill="url(#simulados-bg)"/>
  <rect x="54" y="10" width="20" height="10" rx="5" fill="#eceff1"/>
  <rect x="58" y="4" width="12" height="10" rx="4" fill="#eceff1"/>
  <rect x="86" y="20" width="16" height="9" rx="4.5" fill="#ef5350" transform="rotate(45 94 24.5)"/>
  <circle cx="64" cy="72" r="42" fill="#eceff1"/>
  <circle cx="64" cy="72" r="34" fill="#ffffff"/>
  <g stroke="#90a4ae" stroke-width="2">
    <line x1="64" y1="42" x2="64" y2="46"/>
    <line x1="64" y1="98" x2="64" y2="102"/>
    <line x1="34" y1="72" x2="38" y2="72"/>
    <line x1="90" y1="72" x2="94" y2="72"/>
  </g>
  <g stroke="#1565c0" stroke-width="4" stroke-linecap="round">
    <line x1="64" y1="72" x2="64" y2="48"/>
    <line x1="64" y1="72" x2="82" y2="80"/>
  </g>
  <circle cx="64" cy="72" r="5" fill="#1565c0"/>
</svg>
